<mxfile host="app.diagrams.net" agent="Mozilla/5.0 (Windows NT 10.0; Win64; x64) AppleWebKit/537.36 (KHTML, like Gecko) Chrome/132.0.0.0 Safari/537.36" version="26.0.13">
  <diagram name="Page-1" id="sdxb4JF2xg0lMqM1JeZ1">
    <mxGraphModel dx="808" dy="1502" grid="1" gridSize="10" guides="1" tooltips="1" connect="1" arrows="1" fold="1" page="1" pageScale="1" pageWidth="850" pageHeight="1100" math="0" shadow="0">
      <root>
        <mxCell id="0" />
        <mxCell id="1" parent="0" />
        <mxCell id="ZlHKLBfc8U9-NQOZWX6q-1" value="FbfUser" style="rounded=0;whiteSpace=wrap;html=1;" vertex="1" parent="1">
          <mxGeometry x="160" y="145" width="90" height="40" as="geometry" />
        </mxCell>
        <mxCell id="ZlHKLBfc8U9-NQOZWX6q-2" value="Food" style="rounded=0;whiteSpace=wrap;html=1;" vertex="1" parent="1">
          <mxGeometry x="620" y="-20" width="90" height="40" as="geometry" />
        </mxCell>
        <mxCell id="ZlHKLBfc8U9-NQOZWX6q-3" value="Category" style="rounded=0;whiteSpace=wrap;html=1;" vertex="1" parent="1">
          <mxGeometry x="975" y="-25" width="90" height="40" as="geometry" />
        </mxCell>
        <mxCell id="ZlHKLBfc8U9-NQOZWX6q-4" value="Cart" style="rounded=0;whiteSpace=wrap;html=1;" vertex="1" parent="1">
          <mxGeometry x="450" y="110" width="90" height="40" as="geometry" />
        </mxCell>
        <mxCell id="ZlHKLBfc8U9-NQOZWX6q-5" value="FbfOrder" style="rounded=0;whiteSpace=wrap;html=1;" vertex="1" parent="1">
          <mxGeometry x="450" y="185" width="90" height="40" as="geometry" />
        </mxCell>
        <mxCell id="ZlHKLBfc8U9-NQOZWX6q-6" value="CartItem" style="rounded=0;whiteSpace=wrap;html=1;" vertex="1" parent="1">
          <mxGeometry x="910" y="90" width="90" height="40" as="geometry" />
        </mxCell>
        <mxCell id="ZlHKLBfc8U9-NQOZWX6q-7" value="OrderItem" style="rounded=0;whiteSpace=wrap;html=1;" vertex="1" parent="1">
          <mxGeometry x="700" y="195" width="90" height="40" as="geometry" />
        </mxCell>
        <mxCell id="ZlHKLBfc8U9-NQOZWX6q-8" value="DiscountCode" style="rounded=0;whiteSpace=wrap;html=1;" vertex="1" parent="1">
          <mxGeometry x="585" y="320" width="90" height="40" as="geometry" />
        </mxCell>
        <mxCell id="ZlHKLBfc8U9-NQOZWX6q-9" value="Có" style="rhombus;whiteSpace=wrap;html=1;" vertex="1" parent="1">
          <mxGeometry x="320" y="105" width="80" height="50" as="geometry" />
        </mxCell>
        <mxCell id="ZlHKLBfc8U9-NQOZWX6q-10" value="" style="fontSize=12;html=1;endArrow=ERzeroToOne;endFill=1;rounded=0;" edge="1" parent="1" source="ZlHKLBfc8U9-NQOZWX6q-14" target="ZlHKLBfc8U9-NQOZWX6q-4">
          <mxGeometry width="100" height="100" relative="1" as="geometry">
            <mxPoint x="370" y="320" as="sourcePoint" />
            <mxPoint x="470" y="220" as="targetPoint" />
          </mxGeometry>
        </mxCell>
        <mxCell id="ZlHKLBfc8U9-NQOZWX6q-11" value="" style="fontSize=12;html=1;endArrow=ERzeroToOne;endFill=1;rounded=0;" edge="1" parent="1" source="ZlHKLBfc8U9-NQOZWX6q-19" target="ZlHKLBfc8U9-NQOZWX6q-1">
          <mxGeometry width="100" height="100" relative="1" as="geometry">
            <mxPoint x="230" y="390" as="sourcePoint" />
            <mxPoint x="30" y="300" as="targetPoint" />
          </mxGeometry>
        </mxCell>
        <mxCell id="ZlHKLBfc8U9-NQOZWX6q-12" value="" style="fontSize=12;html=1;endArrow=ERmandOne;rounded=0;" edge="1" parent="1" source="ZlHKLBfc8U9-NQOZWX6q-9" target="ZlHKLBfc8U9-NQOZWX6q-1">
          <mxGeometry width="100" height="100" relative="1" as="geometry">
            <mxPoint x="370" y="320" as="sourcePoint" />
            <mxPoint x="310" y="200" as="targetPoint" />
          </mxGeometry>
        </mxCell>
        <mxCell id="ZlHKLBfc8U9-NQOZWX6q-13" value="" style="fontSize=12;html=1;endArrow=ERmandOne;rounded=0;" edge="1" parent="1" source="ZlHKLBfc8U9-NQOZWX6q-9" target="ZlHKLBfc8U9-NQOZWX6q-4">
          <mxGeometry width="100" height="100" relative="1" as="geometry">
            <mxPoint x="330" y="140" as="sourcePoint" />
            <mxPoint x="240" y="140" as="targetPoint" />
          </mxGeometry>
        </mxCell>
        <mxCell id="ZlHKLBfc8U9-NQOZWX6q-14" value="Chứa" style="rhombus;whiteSpace=wrap;html=1;" vertex="1" parent="1">
          <mxGeometry x="590" y="105" width="80" height="50" as="geometry" />
        </mxCell>
        <mxCell id="ZlHKLBfc8U9-NQOZWX6q-15" value="" style="fontSize=12;html=1;endArrow=ERoneToMany;rounded=0;" edge="1" parent="1" source="ZlHKLBfc8U9-NQOZWX6q-14" target="ZlHKLBfc8U9-NQOZWX6q-6">
          <mxGeometry width="100" height="100" relative="1" as="geometry">
            <mxPoint x="370" y="320" as="sourcePoint" />
            <mxPoint x="470" y="220" as="targetPoint" />
          </mxGeometry>
        </mxCell>
        <mxCell id="ZlHKLBfc8U9-NQOZWX6q-16" value="" style="fontSize=12;html=1;endArrow=ERmandOne;rounded=0;" edge="1" parent="1" source="ZlHKLBfc8U9-NQOZWX6q-17" target="ZlHKLBfc8U9-NQOZWX6q-5">
          <mxGeometry width="100" height="100" relative="1" as="geometry">
            <mxPoint x="520" y="330" as="sourcePoint" />
            <mxPoint x="470" y="220" as="targetPoint" />
          </mxGeometry>
        </mxCell>
        <mxCell id="ZlHKLBfc8U9-NQOZWX6q-17" value="Chứa" style="rhombus;whiteSpace=wrap;html=1;" vertex="1" parent="1">
          <mxGeometry x="570" y="185" width="80" height="50" as="geometry" />
        </mxCell>
        <mxCell id="ZlHKLBfc8U9-NQOZWX6q-18" value="" style="fontSize=12;html=1;endArrow=ERoneToMany;rounded=0;" edge="1" parent="1" source="ZlHKLBfc8U9-NQOZWX6q-17" target="ZlHKLBfc8U9-NQOZWX6q-7">
          <mxGeometry width="100" height="100" relative="1" as="geometry">
            <mxPoint x="652" y="253" as="sourcePoint" />
            <mxPoint x="691" y="310" as="targetPoint" />
          </mxGeometry>
        </mxCell>
        <mxCell id="ZlHKLBfc8U9-NQOZWX6q-19" value="Tạo" style="rhombus;whiteSpace=wrap;html=1;" vertex="1" parent="1">
          <mxGeometry x="320" y="180" width="80" height="50" as="geometry" />
        </mxCell>
        <mxCell id="ZlHKLBfc8U9-NQOZWX6q-20" value="" style="fontSize=12;html=1;endArrow=ERoneToMany;rounded=0;" edge="1" parent="1" source="ZlHKLBfc8U9-NQOZWX6q-19" target="ZlHKLBfc8U9-NQOZWX6q-5">
          <mxGeometry width="100" height="100" relative="1" as="geometry">
            <mxPoint x="652" y="253" as="sourcePoint" />
            <mxPoint x="691" y="310" as="targetPoint" />
          </mxGeometry>
        </mxCell>
        <mxCell id="ZlHKLBfc8U9-NQOZWX6q-21" value="Thanh toán?" style="rhombus;whiteSpace=wrap;html=1;" vertex="1" parent="1">
          <mxGeometry x="305" y="260" width="110" height="50" as="geometry" />
        </mxCell>
        <mxCell id="ZlHKLBfc8U9-NQOZWX6q-22" value="" style="fontSize=12;html=1;endArrow=ERzeroToOne;endFill=1;rounded=0;" edge="1" parent="1" source="ZlHKLBfc8U9-NQOZWX6q-21" target="ZlHKLBfc8U9-NQOZWX6q-1">
          <mxGeometry width="100" height="100" relative="1" as="geometry">
            <mxPoint x="315" y="260" as="sourcePoint" />
            <mxPoint x="180" y="190" as="targetPoint" />
          </mxGeometry>
        </mxCell>
        <mxCell id="ZlHKLBfc8U9-NQOZWX6q-23" value="" style="fontSize=12;html=1;endArrow=ERoneToMany;rounded=0;" edge="1" parent="1" source="ZlHKLBfc8U9-NQOZWX6q-21" target="ZlHKLBfc8U9-NQOZWX6q-5">
          <mxGeometry width="100" height="100" relative="1" as="geometry">
            <mxPoint x="344" y="291" as="sourcePoint" />
            <mxPoint x="407" y="360" as="targetPoint" />
          </mxGeometry>
        </mxCell>
        <mxCell id="ZlHKLBfc8U9-NQOZWX6q-24" value="FoodSize" style="rounded=0;whiteSpace=wrap;html=1;" vertex="1" parent="1">
          <mxGeometry x="975" y="-95" width="90" height="40" as="geometry" />
        </mxCell>
        <mxCell id="ZlHKLBfc8U9-NQOZWX6q-25" value="Thuộc về" style="rhombus;whiteSpace=wrap;html=1;" vertex="1" parent="1">
          <mxGeometry x="838" y="-30" width="80" height="50" as="geometry" />
        </mxCell>
        <mxCell id="ZlHKLBfc8U9-NQOZWX6q-26" value="" style="fontSize=12;html=1;endArrow=ERzeroToOne;endFill=1;rounded=0;" edge="1" parent="1" source="ZlHKLBfc8U9-NQOZWX6q-25" target="ZlHKLBfc8U9-NQOZWX6q-3">
          <mxGeometry width="100" height="100" relative="1" as="geometry">
            <mxPoint x="875" y="150" as="sourcePoint" />
            <mxPoint x="787" y="110" as="targetPoint" />
          </mxGeometry>
        </mxCell>
        <mxCell id="ZlHKLBfc8U9-NQOZWX6q-27" value="" style="fontSize=12;html=1;endArrow=ERoneToMany;rounded=0;" edge="1" parent="1" source="ZlHKLBfc8U9-NQOZWX6q-25" target="ZlHKLBfc8U9-NQOZWX6q-2">
          <mxGeometry width="100" height="100" relative="1" as="geometry">
            <mxPoint x="914" y="175" as="sourcePoint" />
            <mxPoint x="982" y="240" as="targetPoint" />
          </mxGeometry>
        </mxCell>
        <mxCell id="ZlHKLBfc8U9-NQOZWX6q-28" value="Có" style="rhombus;whiteSpace=wrap;html=1;" vertex="1" parent="1">
          <mxGeometry x="838" y="-100" width="80" height="50" as="geometry" />
        </mxCell>
        <mxCell id="ZlHKLBfc8U9-NQOZWX6q-29" value="" style="fontSize=12;html=1;endArrow=ERzeroToOne;endFill=1;rounded=0;" edge="1" parent="1" source="ZlHKLBfc8U9-NQOZWX6q-28" target="ZlHKLBfc8U9-NQOZWX6q-24">
          <mxGeometry width="100" height="100" relative="1" as="geometry">
            <mxPoint x="1042" y="120" as="sourcePoint" />
            <mxPoint x="948" y="-90" as="targetPoint" />
          </mxGeometry>
        </mxCell>
        <mxCell id="ZlHKLBfc8U9-NQOZWX6q-30" value="" style="fontSize=12;html=1;endArrow=ERoneToMany;rounded=0;" edge="1" parent="1" source="ZlHKLBfc8U9-NQOZWX6q-28" target="ZlHKLBfc8U9-NQOZWX6q-2">
          <mxGeometry width="100" height="100" relative="1" as="geometry">
            <mxPoint x="1081" y="145" as="sourcePoint" />
            <mxPoint x="1125" y="3" as="targetPoint" />
          </mxGeometry>
        </mxCell>
        <mxCell id="ZlHKLBfc8U9-NQOZWX6q-31" value="" style="fontSize=12;html=1;endArrow=ERzeroToOne;endFill=1;rounded=0;" edge="1" parent="1" source="ZlHKLBfc8U9-NQOZWX6q-32" target="ZlHKLBfc8U9-NQOZWX6q-7">
          <mxGeometry width="100" height="100" relative="1" as="geometry">
            <mxPoint x="700" y="616" as="sourcePoint" />
            <mxPoint x="692" y="485" as="targetPoint" />
          </mxGeometry>
        </mxCell>
        <mxCell id="ZlHKLBfc8U9-NQOZWX6q-32" value="Áp dụng" style="rhombus;whiteSpace=wrap;html=1;" vertex="1" parent="1">
          <mxGeometry x="700" y="270" width="80" height="50" as="geometry" />
        </mxCell>
        <mxCell id="ZlHKLBfc8U9-NQOZWX6q-33" value="" style="fontSize=12;html=1;endArrow=ERzeroToOne;endFill=1;rounded=0;" edge="1" parent="1" source="ZlHKLBfc8U9-NQOZWX6q-32" target="ZlHKLBfc8U9-NQOZWX6q-8">
          <mxGeometry width="100" height="100" relative="1" as="geometry">
            <mxPoint x="710" y="626" as="sourcePoint" />
            <mxPoint x="732" y="470" as="targetPoint" />
          </mxGeometry>
        </mxCell>
        <mxCell id="ZlHKLBfc8U9-NQOZWX6q-35" value="" style="fontSize=12;html=1;endArrow=ERzeroToOne;endFill=1;rounded=0;" edge="1" parent="1" source="ZlHKLBfc8U9-NQOZWX6q-36" target="ZlHKLBfc8U9-NQOZWX6q-5">
          <mxGeometry width="100" height="100" relative="1" as="geometry">
            <mxPoint x="380" y="596" as="sourcePoint" />
            <mxPoint x="360" y="430" as="targetPoint" />
          </mxGeometry>
        </mxCell>
        <mxCell id="ZlHKLBfc8U9-NQOZWX6q-36" value="Áp dụng" style="rhombus;whiteSpace=wrap;html=1;" vertex="1" parent="1">
          <mxGeometry x="455" y="270" width="80" height="50" as="geometry" />
        </mxCell>
        <mxCell id="ZlHKLBfc8U9-NQOZWX6q-37" value="" style="fontSize=12;html=1;endArrow=ERzeroToOne;endFill=1;rounded=0;" edge="1" parent="1" source="ZlHKLBfc8U9-NQOZWX6q-36" target="ZlHKLBfc8U9-NQOZWX6q-8">
          <mxGeometry width="100" height="100" relative="1" as="geometry">
            <mxPoint x="390" y="606" as="sourcePoint" />
            <mxPoint x="50" y="492" as="targetPoint" />
          </mxGeometry>
        </mxCell>
        <mxCell id="ZlHKLBfc8U9-NQOZWX6q-38" value="Tạo" style="rhombus;whiteSpace=wrap;html=1;" vertex="1" parent="1">
          <mxGeometry x="780" y="30" width="80" height="50" as="geometry" />
        </mxCell>
        <mxCell id="ZlHKLBfc8U9-NQOZWX6q-40" value="" style="fontSize=12;html=1;endArrow=ERzeroToOne;endFill=1;rounded=0;" edge="1" parent="1" source="ZlHKLBfc8U9-NQOZWX6q-38" target="ZlHKLBfc8U9-NQOZWX6q-2">
          <mxGeometry width="100" height="100" relative="1" as="geometry">
            <mxPoint x="1090" y="164.5" as="sourcePoint" />
            <mxPoint x="1020" y="210" as="targetPoint" />
          </mxGeometry>
        </mxCell>
        <mxCell id="ZlHKLBfc8U9-NQOZWX6q-41" value="Được tạo từ" style="rhombus;whiteSpace=wrap;html=1;" vertex="1" parent="1">
          <mxGeometry x="810" y="140" width="80" height="50" as="geometry" />
        </mxCell>
        <mxCell id="ZlHKLBfc8U9-NQOZWX6q-42" value="" style="fontSize=12;html=1;endArrow=ERmandOne;rounded=0;" edge="1" parent="1" source="ZlHKLBfc8U9-NQOZWX6q-41" target="ZlHKLBfc8U9-NQOZWX6q-7">
          <mxGeometry width="100" height="100" relative="1" as="geometry">
            <mxPoint x="1104" y="200" as="sourcePoint" />
            <mxPoint x="850" y="225" as="targetPoint" />
          </mxGeometry>
        </mxCell>
        <mxCell id="ZlHKLBfc8U9-NQOZWX6q-43" value="" style="fontSize=12;html=1;endArrow=ERzeroToOne;endFill=1;rounded=0;" edge="1" parent="1" source="ZlHKLBfc8U9-NQOZWX6q-41" target="ZlHKLBfc8U9-NQOZWX6q-6">
          <mxGeometry width="100" height="100" relative="1" as="geometry">
            <mxPoint x="1113" y="254.5" as="sourcePoint" />
            <mxPoint x="1013" y="225" as="targetPoint" />
          </mxGeometry>
        </mxCell>
        <mxCell id="ZlHKLBfc8U9-NQOZWX6q-44" value="" style="fontSize=12;html=1;endArrow=ERoneToMany;rounded=0;" edge="1" parent="1" source="ZlHKLBfc8U9-NQOZWX6q-38" target="ZlHKLBfc8U9-NQOZWX6q-6">
          <mxGeometry width="100" height="100" relative="1" as="geometry">
            <mxPoint x="678" y="141" as="sourcePoint" />
            <mxPoint x="747" y="144" as="targetPoint" />
          </mxGeometry>
        </mxCell>
      </root>
    </mxGraphModel>
  </diagram>
</mxfile>
